<svg xmlns="http://www.w3.org/2000/svg" viewBox="0 0 18.65 23.92" width="18.65px" height="23.92px" preserveAspectRatio="xMinYMid"><defs><style>.a{fill:#191919;}</style></defs><title>header-icon-cart</title><path class="a" d="M23.46,28.28H8.82a2,2,0,0,1-2-2v-15a2,2,0,0,1,2-2H23.46a2,2,0,0,1,2,2v15a2,2,0,0,1-2,2h0Zm0-2v0h0Zm-14.65-15v15H23.46v-15H8.82Z" transform="translate(-6.82 -4.36)"/><path class="a" d="M19.76,13.61a1,1,0,0,1-1-1V6.36H13.51v6.25a1,1,0,0,1-2,0V6.36a2,2,0,0,1,2-2h5.25a2,2,0,0,1,2,2v6.25a1,1,0,0,1-1,1h0Z" transform="translate(-6.82 -4.36)"/></svg>