<svg xmlns="http://www.w3.org/2000/svg" viewBox="0 0 25.13 21.79" width="25.13px" height="21.79px" preserveAspectRatio="xMinYMid"><defs><style>.a{fill:#191919;}</style></defs><title>header-icon-bookmark</title><path class="a" d="M16.4,28a1.06,1.06,0,0,1-.51-0.13l-0.14-.09-0.33-.23c-0.79-.55-2.63-1.83-3.86-2.78C6.87,21.1,4.47,18.47,4,16.46a7.67,7.67,0,0,1-.36-2.28A8.09,8.09,0,0,1,5.91,8.43a6.9,6.9,0,0,1,4.92-2.11h0a7.2,7.2,0,0,1,5.32,2.3,7.11,7.11,0,0,1,5.27-2.43h0.14c3.93,0,7.17,3.45,7.22,7.69a8,8,0,0,1-.32,2.38c-0.38,1.92-2.77,4.7-7.29,8.4A45.44,45.44,0,0,1,17,27.82a1.06,1.06,0,0,1-.57.17h0ZM10.91,8.44A4.83,4.83,0,0,0,7.43,9.92a6,6,0,0,0-1.64,4.24,5.8,5.8,0,0,0,.28,1.74c0.21,0.91,1.34,2.92,6.8,7.17,1.08,0.83,2.69,2,3.55,2.56,0.9-.62,2.07-1.52,3.41-2.62,5.33-4.37,6.41-6.43,6.58-7.27a6.17,6.17,0,0,0,.26-1.84,5.42,5.42,0,0,0-5.1-5.59H21.46a5.07,5.07,0,0,0-4.35,2.62,1.06,1.06,0,0,1-.91.54A1.1,1.1,0,0,1,15.27,11a5.09,5.09,0,0,0-4.36-2.52h0Z" transform="translate(-3.66 -6.19)"/></svg>