<svg xmlns="http://www.w3.org/2000/svg" viewBox="0 0 25.13 21.79" width="25.13px" height="21.79px" preserveAspectRatio="xMinYMid"><defs><style>.a{fill:#191919;}</style></defs><title>header-icon-bookmark-on</title><path class="a" d="M16.17,26.9a1.06,1.06,0,0,1-.51-0.13l-0.14-.09-0.33-.23c-0.79-.55-2.63-1.83-3.86-2.78C6.65,20,4.25,17.38,3.79,15.38a7.67,7.67,0,0,1-.36-2.28A8.09,8.09,0,0,1,5.69,7.34a6.9,6.9,0,0,1,4.92-2.11h0a7.2,7.2,0,0,1,5.32,2.3A7.11,7.11,0,0,1,21.2,5.1h0.14c3.93,0,7.17,3.45,7.22,7.69a8,8,0,0,1-.32,2.38c-0.38,1.92-2.77,4.7-7.29,8.4a45.44,45.44,0,0,1-4.2,3.16,1.06,1.06,0,0,1-.57.17h0Z" transform="translate(-3.44 -5.1)"/></svg>